<svg width="4500" height="4500" viewBox="0 0 4500 4500" fill="none" xmlns="http://www.w3.org/2000/svg">
<path d="M0 0H4500V4500H0V0Z" fill="#101010"/>
<path d="M2205.6 2910.33C2259.31 2900.56 2286.17 2873.71 2286.17 2829.76C2286.17 2784.19 2271.52 2733.73 2242.22 2678.39C2214.55 2621.43 2173.05 2567.72 2117.71 2517.26C1972.85 2387.05 1776.73 2321.95 1529.33 2321.95C1407.26 2321.95 1293.33 2342.29 1187.54 2382.98C1075.23 2326.02 985.712 2235.69 918.98 2111.99C852.249 1988.29 818.883 1854.83 818.883 1711.6C818.883 1337.25 975.133 1048.35 1287.63 844.898C1556.19 670.745 1887.4 583.668 2281.29 583.668C2574.25 583.668 2820.84 615.406 3021.03 678.883C3221.23 740.732 3384.8 820.484 3511.75 918.141C3549.19 1025.56 3567.91 1137.05 3567.91 1252.61C3567.91 1368.17 3552.44 1473.15 3521.52 1567.55C3490.6 1661.96 3445.84 1737.64 3387.24 1794.61C3331.9 1753.92 3231.81 1712.41 3086.95 1670.09C2942.09 1627.78 2810.26 1606.62 2691.44 1606.62C2572.63 1606.62 2492.87 1613.94 2452.18 1628.59C2413.12 1643.24 2393.59 1666.02 2393.59 1696.95C2393.59 1711.6 2396.03 1725.43 2400.91 1738.45C2457.88 1723.8 2531.12 1716.48 2620.64 1716.48C2938.02 1716.48 3196.81 1791.35 3397.01 1941.09C3633.01 2120.13 3751.01 2388.68 3751.01 2746.75C3751.01 3062.51 3623.24 3324.55 3367.71 3532.89C3091.02 3755.87 2719.11 3867.36 2251.99 3867.36C1994.83 3867.36 1771.85 3847.83 1583.04 3808.77C1394.24 3771.33 1210.32 3704.6 1031.29 3608.57C909.215 3431.16 848.18 3251.31 848.18 3069.02C848.18 2885.1 910.842 2732.92 1036.17 2612.48C1161.49 2492.03 1315.3 2431.81 1497.59 2431.81C1681.51 2431.81 1831.25 2469.25 1946.81 2544.12C2064 2618.99 2150.26 2741.06 2205.6 2910.33Z" fill="#F6F4F4"/>
</svg>
